<svg width="20" height="20" viewBox="0 0 20 20" fill="none" xmlns="http://www.w3.org/2000/svg">
<path d="M16.6667 4.16669H3.33341L1.66675 15.8334H5.00008L7.50008 13.3334H12.5001L15.0001 15.8334H18.3334L16.6667 4.16669ZM9.16675 9.16669H7.50008V10.8334H6.66675V9.16669H5.00008V8.33335H6.66675V6.66669H7.50008V8.33335H9.16675V9.16669ZM12.5001 8.33335C12.0417 8.33335 11.6667 7.95835 11.6667 7.50002C11.6667 7.04169 12.0417 6.66669 12.5001 6.66669C12.9584 6.66669 13.3334 7.04169 13.3334 7.50002C13.3334 7.95835 12.9584 8.33335 12.5001 8.33335ZM14.1667 10.8334C13.7084 10.8334 13.3334 10.4584 13.3334 10C13.3334 9.54169 13.7084 9.16669 14.1667 9.16669C14.6251 9.16669 15.0001 9.54169 15.0001 10C15.0001 10.4584 14.6251 10.8334 14.1667 10.8334Z" fill="black"/>
</svg>
