<svg width="20" height="20" viewBox="0 0 20 20" fill="none" xmlns="http://www.w3.org/2000/svg">
<path d="M12.825 12.1333C11.425 11.4166 9.60831 10.8333 7.49997 10.8333C5.39164 10.8333 3.57497 11.4166 2.17497 12.1333C1.76835 12.3427 1.42772 12.6608 1.19089 13.052C0.954055 13.4433 0.830281 13.8926 0.833306 14.35V16.6666H14.1666V14.35C14.1666 13.4166 13.6583 12.5583 12.825 12.1333V12.1333ZM7.49997 9.99998C9.34164 9.99998 10.8333 8.50831 10.8333 6.66665C10.8333 4.82498 9.34164 3.33331 7.49997 3.33331C5.65831 3.33331 4.16664 4.82498 4.16664 6.66665C4.16664 8.50831 5.65831 9.99998 7.49997 9.99998ZM16.6666 7.49998V4.99998H15V7.49998H12.5V9.16665H15V11.6666H16.6666V9.16665H19.1666V7.49998H16.6666Z" fill="black"/>
</svg>
