<svg width="20" height="20" viewBox="0 0 20 20" fill="none" xmlns="http://www.w3.org/2000/svg">
<path d="M14.7083 5.29159C14.0916 4.67062 13.358 4.17789 12.5499 3.84178C11.7418 3.50567 10.8752 3.33284 10 3.33325C6.31667 3.33325 3.34167 6.31659 3.34167 9.99992C3.34167 13.6833 6.31667 16.6666 10 16.6666C13.1083 16.6666 15.7 14.5416 16.4417 11.6666H14.7083C14.3651 12.6412 13.7278 13.4852 12.8845 14.0823C12.0411 14.6793 11.0333 15 10 14.9999C7.24167 14.9999 5.00001 12.7583 5.00001 9.99992C5.00001 7.24159 7.24167 4.99992 10 4.99992C11.3833 4.99992 12.6167 5.57492 13.5167 6.48325L10.8333 9.16659H16.6667V3.33325L14.7083 5.29159Z" fill="black"/>
</svg>
