<svg width="20" height="20" viewBox="0 0 20 20" fill="none" xmlns="http://www.w3.org/2000/svg">
<path d="M12.9166 11.6667H12.2582L12.0249 11.4417C12.8698 10.4617 13.3342 9.21058 13.3332 7.91667C13.3332 6.48008 12.7626 5.10233 11.7467 4.0865C10.7309 3.07068 9.35316 2.5 7.91657 2.5C5.06657 2.5 2.73324 4.7 2.5249 7.5H4.20824C4.41657 5.625 5.98324 4.16667 7.91657 4.16667C9.99157 4.16667 11.6666 5.84167 11.6666 7.91667C11.6666 9.99167 9.99157 11.6667 7.91657 11.6667C7.7749 11.6667 7.64157 11.6417 7.4999 11.625V13.3083C7.64157 13.325 7.7749 13.3333 7.91657 13.3333C9.25824 13.3333 10.4916 12.8417 11.4416 12.025L11.6666 12.2583V12.9167L15.8332 17.075L17.0749 15.8333L12.9166 11.6667V11.6667Z" fill="black"/>
<path d="M5.39168 9.01666L3.33335 11.075L1.27502 9.01666L0.68335 9.60833L2.74168 11.6667L0.68335 13.725L1.27502 14.3167L3.33335 12.2583L5.39168 14.3167L5.98335 13.725L3.92502 11.6667L5.98335 9.60833L5.39168 9.01666Z" fill="black"/>
</svg>
