<svg width="20" height="20" viewBox="0 0 20 20" fill="none" xmlns="http://www.w3.org/2000/svg">
<path d="M7.5 2.5C7.5 1.11937 8.61937 0 10 0C11.3806 0 12.5 1.11937 12.5 2.5C12.5 3.88063 11.3806 5 10 5C8.61937 5 7.5 3.88063 7.5 2.5ZM12.8031 4.69687C12.8031 3.31625 13.9225 2.19688 15.3031 2.19688C16.6838 2.19688 17.8031 3.31625 17.8031 4.69687C17.8031 6.0775 16.6838 7.19688 15.3031 7.19688C13.9225 7.19688 12.8031 6.0775 12.8031 4.69687V4.69687ZM16.25 10C16.25 9.30937 16.8094 8.75 17.5 8.75C18.1906 8.75 18.75 9.30937 18.75 10C18.75 10.6906 18.1906 11.25 17.5 11.25C16.8094 11.25 16.25 10.6906 16.25 10ZM14.0531 15.3031C14.0531 14.6125 14.6125 14.0531 15.3031 14.0531C15.9938 14.0531 16.5531 14.6125 16.5531 15.3031C16.5531 15.9938 15.9938 16.5531 15.3031 16.5531C14.6125 16.5531 14.0531 15.9938 14.0531 15.3031ZM8.75 17.5C8.75 16.8094 9.30937 16.25 10 16.25C10.6906 16.25 11.25 16.8094 11.25 17.5C11.25 18.1906 10.6906 18.75 10 18.75C9.30937 18.75 8.75 18.1906 8.75 17.5ZM3.44687 15.3031C3.44687 14.6125 4.00625 14.0531 4.69687 14.0531C5.3875 14.0531 5.94688 14.6125 5.94688 15.3031C5.94688 15.9938 5.3875 16.5531 4.69687 16.5531C4.00625 16.5531 3.44687 15.9938 3.44687 15.3031V15.3031ZM2.82187 4.69687C2.82187 3.66125 3.66125 2.82187 4.69687 2.82187C5.7325 2.82187 6.57188 3.66125 6.57188 4.69687C6.57188 5.7325 5.7325 6.57188 4.69687 6.57188C3.66125 6.57188 2.82187 5.7325 2.82187 4.69687V4.69687ZM1.09375 10C1.09375 9.22312 1.72312 8.59375 2.5 8.59375C3.27688 8.59375 3.90625 9.22312 3.90625 10C3.90625 10.7769 3.27688 11.4062 2.5 11.4062C1.72312 11.4062 1.09375 10.7769 1.09375 10Z" fill="black"/>
</svg>
